<mxfile host="app.diagrams.net" modified="2022-02-12T10:27:47.181Z" agent="5.0 (X11)" etag="Inxm5syAjvZaHqOXF3Uq" version="16.5.6" type="github">
  <diagram id="C5RBs43oDa-KdzZeNtuy" name="Page-1">
    <mxGraphModel dx="3429" dy="1469" grid="1" gridSize="10" guides="1" tooltips="1" connect="1" arrows="1" fold="1" page="1" pageScale="1" pageWidth="827" pageHeight="1169" math="0" shadow="0">
      <root>
        <mxCell id="WIyWlLk6GJQsqaUBKTNV-0" />
        <mxCell id="WIyWlLk6GJQsqaUBKTNV-1" parent="WIyWlLk6GJQsqaUBKTNV-0" />
        <mxCell id="WIyWlLk6GJQsqaUBKTNV-2" value="" style="rounded=0;html=1;jettySize=auto;orthogonalLoop=1;fontSize=11;endArrow=block;endFill=0;endSize=8;strokeWidth=1;shadow=0;labelBackgroundColor=none;edgeStyle=orthogonalEdgeStyle;verticalAlign=middle;" parent="WIyWlLk6GJQsqaUBKTNV-1" source="WIyWlLk6GJQsqaUBKTNV-3" edge="1">
          <mxGeometry relative="1" as="geometry">
            <mxPoint x="190" y="170" as="targetPoint" />
          </mxGeometry>
        </mxCell>
        <mxCell id="WIyWlLk6GJQsqaUBKTNV-3" value="начало" style="rounded=1;whiteSpace=wrap;html=1;fontSize=12;glass=0;strokeWidth=1;shadow=0;verticalAlign=middle;" parent="WIyWlLk6GJQsqaUBKTNV-1" vertex="1">
          <mxGeometry x="130" y="100" width="120" height="40" as="geometry" />
        </mxCell>
        <mxCell id="G0FCoE94biT_OzXAXDnM-15" value="" style="edgeStyle=orthogonalEdgeStyle;rounded=0;orthogonalLoop=1;jettySize=auto;html=1;endArrow=block;endFill=0;verticalAlign=middle;entryX=0.5;entryY=0;entryDx=0;entryDy=0;" edge="1" parent="WIyWlLk6GJQsqaUBKTNV-1" source="WIyWlLk6GJQsqaUBKTNV-10" target="G0FCoE94biT_OzXAXDnM-94">
          <mxGeometry relative="1" as="geometry">
            <mxPoint x="-450" y="530" as="targetPoint" />
          </mxGeometry>
        </mxCell>
        <mxCell id="G0FCoE94biT_OzXAXDnM-16" value="левую" style="edgeLabel;html=1;align=center;verticalAlign=middle;resizable=0;points=[];" vertex="1" connectable="0" parent="G0FCoE94biT_OzXAXDnM-15">
          <mxGeometry x="-0.2123" y="2" relative="1" as="geometry">
            <mxPoint x="21" y="-22" as="offset" />
          </mxGeometry>
        </mxCell>
        <mxCell id="G0FCoE94biT_OzXAXDnM-18" value="" style="edgeStyle=orthogonalEdgeStyle;rounded=0;orthogonalLoop=1;jettySize=auto;html=1;endArrow=block;endFill=0;verticalAlign=middle;entryX=0.5;entryY=0;entryDx=0;entryDy=0;" edge="1" parent="WIyWlLk6GJQsqaUBKTNV-1" source="WIyWlLk6GJQsqaUBKTNV-10" target="G0FCoE94biT_OzXAXDnM-95">
          <mxGeometry relative="1" as="geometry">
            <mxPoint x="-100" y="549.94" as="targetPoint" />
          </mxGeometry>
        </mxCell>
        <mxCell id="G0FCoE94biT_OzXAXDnM-19" value="правую" style="edgeLabel;html=1;align=center;verticalAlign=middle;resizable=0;points=[];" vertex="1" connectable="0" parent="G0FCoE94biT_OzXAXDnM-18">
          <mxGeometry x="0.3119" y="-1" relative="1" as="geometry">
            <mxPoint x="-59" y="-22" as="offset" />
          </mxGeometry>
        </mxCell>
        <mxCell id="WIyWlLk6GJQsqaUBKTNV-10" value="В какую сторону" style="rhombus;whiteSpace=wrap;html=1;shadow=0;fontFamily=Helvetica;fontSize=12;align=center;strokeWidth=1;spacing=6;spacingTop=-4;verticalAlign=middle;" parent="WIyWlLk6GJQsqaUBKTNV-1" vertex="1">
          <mxGeometry x="-340" y="439.94" width="100" height="80" as="geometry" />
        </mxCell>
        <mxCell id="WIyWlLk6GJQsqaUBKTNV-11" value="конец" style="rounded=1;whiteSpace=wrap;html=1;fontSize=12;glass=0;strokeWidth=1;shadow=0;verticalAlign=middle;" parent="WIyWlLk6GJQsqaUBKTNV-1" vertex="1">
          <mxGeometry x="40" y="1340" width="120" height="40" as="geometry" />
        </mxCell>
        <mxCell id="G0FCoE94biT_OzXAXDnM-38" value="" style="edgeStyle=orthogonalEdgeStyle;rounded=0;orthogonalLoop=1;jettySize=auto;html=1;endArrow=block;endFill=0;verticalAlign=middle;" edge="1" parent="WIyWlLk6GJQsqaUBKTNV-1" source="G0FCoE94biT_OzXAXDnM-1" target="G0FCoE94biT_OzXAXDnM-2">
          <mxGeometry relative="1" as="geometry" />
        </mxCell>
        <mxCell id="G0FCoE94biT_OzXAXDnM-1" value="&lt;div&gt;a = 5&lt;/div&gt;&lt;div&gt;b = 6&lt;br&gt;&lt;/div&gt;" style="rounded=0;whiteSpace=wrap;html=1;verticalAlign=middle;" vertex="1" parent="WIyWlLk6GJQsqaUBKTNV-1">
          <mxGeometry x="140" y="170" width="100" height="40" as="geometry" />
        </mxCell>
        <mxCell id="G0FCoE94biT_OzXAXDnM-92" value="" style="edgeStyle=orthogonalEdgeStyle;rounded=0;orthogonalLoop=1;jettySize=auto;html=1;endArrow=block;endFill=0;" edge="1" parent="WIyWlLk6GJQsqaUBKTNV-1" source="G0FCoE94biT_OzXAXDnM-2" target="G0FCoE94biT_OzXAXDnM-91">
          <mxGeometry relative="1" as="geometry" />
        </mxCell>
        <mxCell id="G0FCoE94biT_OzXAXDnM-2" value="&lt;div&gt;перевести &quot;a&quot; в биты = 101&lt;br&gt;&lt;/div&gt;&lt;div&gt;перевести &quot;b&quot; в биты = 110&lt;/div&gt;" style="rounded=0;whiteSpace=wrap;html=1;verticalAlign=middle;" vertex="1" parent="WIyWlLk6GJQsqaUBKTNV-1">
          <mxGeometry x="100" y="240" width="180" height="50" as="geometry" />
        </mxCell>
        <mxCell id="G0FCoE94biT_OzXAXDnM-4" value="" style="rounded=0;html=1;jettySize=auto;orthogonalLoop=1;fontSize=11;endArrow=block;endFill=0;endSize=8;strokeWidth=1;shadow=0;labelBackgroundColor=none;edgeStyle=orthogonalEdgeStyle;verticalAlign=middle;" edge="1" parent="WIyWlLk6GJQsqaUBKTNV-1" target="G0FCoE94biT_OzXAXDnM-6">
          <mxGeometry y="20" relative="1" as="geometry">
            <mxPoint as="offset" />
            <mxPoint x="230" y="370" as="sourcePoint" />
          </mxGeometry>
        </mxCell>
        <mxCell id="G0FCoE94biT_OzXAXDnM-93" value="&lt;div&gt;Логическую&lt;/div&gt;&lt;div&gt;&quot;и&quot; / &quot;или&quot;&lt;/div&gt;" style="edgeLabel;html=1;align=center;verticalAlign=middle;resizable=0;points=[];" vertex="1" connectable="0" parent="G0FCoE94biT_OzXAXDnM-4">
          <mxGeometry x="-0.2381" y="-1" relative="1" as="geometry">
            <mxPoint x="13" y="-21" as="offset" />
          </mxGeometry>
        </mxCell>
        <mxCell id="G0FCoE94biT_OzXAXDnM-5" value="ИЛИ" style="edgeStyle=orthogonalEdgeStyle;rounded=0;html=1;jettySize=auto;orthogonalLoop=1;fontSize=11;endArrow=block;endFill=0;endSize=8;strokeWidth=1;shadow=0;labelBackgroundColor=none;entryX=0.5;entryY=0;entryDx=0;entryDy=0;verticalAlign=middle;" edge="1" parent="WIyWlLk6GJQsqaUBKTNV-1" source="G0FCoE94biT_OzXAXDnM-6" target="G0FCoE94biT_OzXAXDnM-62">
          <mxGeometry x="-0.3352" y="10" relative="1" as="geometry">
            <mxPoint as="offset" />
            <mxPoint x="450" y="370" as="targetPoint" />
          </mxGeometry>
        </mxCell>
        <mxCell id="G0FCoE94biT_OzXAXDnM-9" value="" style="edgeStyle=orthogonalEdgeStyle;rounded=0;orthogonalLoop=1;jettySize=auto;html=1;endArrow=block;endFill=0;verticalAlign=middle;exitX=0;exitY=0.5;exitDx=0;exitDy=0;" edge="1" parent="WIyWlLk6GJQsqaUBKTNV-1" source="G0FCoE94biT_OzXAXDnM-6" target="G0FCoE94biT_OzXAXDnM-8">
          <mxGeometry relative="1" as="geometry">
            <mxPoint x="370.07352941176487" y="449.99882352941194" as="sourcePoint" />
          </mxGeometry>
        </mxCell>
        <mxCell id="G0FCoE94biT_OzXAXDnM-10" value="&lt;div&gt;И&lt;/div&gt;" style="edgeLabel;html=1;align=center;verticalAlign=middle;resizable=0;points=[];" vertex="1" connectable="0" parent="G0FCoE94biT_OzXAXDnM-9">
          <mxGeometry x="-0.2966" y="-2" relative="1" as="geometry">
            <mxPoint x="7" y="-8" as="offset" />
          </mxGeometry>
        </mxCell>
        <mxCell id="G0FCoE94biT_OzXAXDnM-12" value="" style="edgeStyle=orthogonalEdgeStyle;rounded=0;orthogonalLoop=1;jettySize=auto;html=1;endArrow=block;endFill=0;verticalAlign=middle;startArrow=none;exitX=0;exitY=0.5;exitDx=0;exitDy=0;" edge="1" parent="WIyWlLk6GJQsqaUBKTNV-1" source="G0FCoE94biT_OzXAXDnM-91" target="WIyWlLk6GJQsqaUBKTNV-10">
          <mxGeometry relative="1" as="geometry">
            <mxPoint x="-240" y="440" as="sourcePoint" />
          </mxGeometry>
        </mxCell>
        <mxCell id="G0FCoE94biT_OzXAXDnM-13" value="Побитовый сдвиг на 2 знака" style="edgeLabel;html=1;align=center;verticalAlign=middle;resizable=0;points=[];" vertex="1" connectable="0" parent="G0FCoE94biT_OzXAXDnM-12">
          <mxGeometry x="0.3587" y="2" relative="1" as="geometry">
            <mxPoint x="152" y="-22" as="offset" />
          </mxGeometry>
        </mxCell>
        <mxCell id="G0FCoE94biT_OzXAXDnM-6" value="Какую операцию делаем?" style="rhombus;whiteSpace=wrap;html=1;shadow=0;fontFamily=Helvetica;fontSize=12;align=center;strokeWidth=1;spacing=6;spacingTop=-4;verticalAlign=middle;" vertex="1" parent="WIyWlLk6GJQsqaUBKTNV-1">
          <mxGeometry x="350.33" y="400" width="100" height="80" as="geometry" />
        </mxCell>
        <mxCell id="G0FCoE94biT_OzXAXDnM-25" value="" style="edgeStyle=orthogonalEdgeStyle;rounded=0;orthogonalLoop=1;jettySize=auto;html=1;endArrow=block;endFill=0;exitX=1;exitY=0.5;exitDx=0;exitDy=0;verticalAlign=middle;" edge="1" parent="WIyWlLk6GJQsqaUBKTNV-1" source="G0FCoE94biT_OzXAXDnM-8" target="G0FCoE94biT_OzXAXDnM-24">
          <mxGeometry relative="1" as="geometry" />
        </mxCell>
        <mxCell id="G0FCoE94biT_OzXAXDnM-27" value="&lt;div&gt;Да&lt;/div&gt;" style="edgeLabel;html=1;align=center;verticalAlign=middle;resizable=0;points=[];" vertex="1" connectable="0" parent="G0FCoE94biT_OzXAXDnM-25">
          <mxGeometry x="-0.2524" y="-2" relative="1" as="geometry">
            <mxPoint x="-8" y="-12" as="offset" />
          </mxGeometry>
        </mxCell>
        <mxCell id="G0FCoE94biT_OzXAXDnM-40" value="" style="edgeStyle=orthogonalEdgeStyle;rounded=0;orthogonalLoop=1;jettySize=auto;html=1;endArrow=block;endFill=0;exitX=0;exitY=0.5;exitDx=0;exitDy=0;verticalAlign=middle;" edge="1" parent="WIyWlLk6GJQsqaUBKTNV-1" source="G0FCoE94biT_OzXAXDnM-8" target="G0FCoE94biT_OzXAXDnM-39">
          <mxGeometry relative="1" as="geometry" />
        </mxCell>
        <mxCell id="G0FCoE94biT_OzXAXDnM-48" value="Нет" style="edgeLabel;html=1;align=center;verticalAlign=middle;resizable=0;points=[];" vertex="1" connectable="0" parent="G0FCoE94biT_OzXAXDnM-40">
          <mxGeometry x="-0.1889" relative="1" as="geometry">
            <mxPoint x="13" y="-10" as="offset" />
          </mxGeometry>
        </mxCell>
        <mxCell id="G0FCoE94biT_OzXAXDnM-8" value="&lt;div&gt;в первом&lt;/div&gt;&lt;div&gt;разряде &quot;a&quot; и &quot;b&quot; стоит 1?&lt;/div&gt;" style="rhombus;whiteSpace=wrap;html=1;shadow=0;strokeWidth=1;spacing=6;spacingTop=-4;verticalAlign=middle;" vertex="1" parent="WIyWlLk6GJQsqaUBKTNV-1">
          <mxGeometry x="130" y="499.94" width="120" height="80" as="geometry" />
        </mxCell>
        <mxCell id="G0FCoE94biT_OzXAXDnM-29" value="" style="edgeStyle=orthogonalEdgeStyle;rounded=0;orthogonalLoop=1;jettySize=auto;html=1;endArrow=block;endFill=0;verticalAlign=middle;" edge="1" parent="WIyWlLk6GJQsqaUBKTNV-1" source="G0FCoE94biT_OzXAXDnM-24" target="G0FCoE94biT_OzXAXDnM-28">
          <mxGeometry relative="1" as="geometry">
            <Array as="points">
              <mxPoint x="330" y="659.94" />
              <mxPoint x="190" y="659.94" />
            </Array>
          </mxGeometry>
        </mxCell>
        <mxCell id="G0FCoE94biT_OzXAXDnM-24" value="ans1 = 1" style="whiteSpace=wrap;html=1;shadow=0;strokeWidth=1;spacing=6;spacingTop=-4;verticalAlign=middle;" vertex="1" parent="WIyWlLk6GJQsqaUBKTNV-1">
          <mxGeometry x="290" y="589.94" width="80" height="40" as="geometry" />
        </mxCell>
        <mxCell id="G0FCoE94biT_OzXAXDnM-31" value="" style="edgeStyle=orthogonalEdgeStyle;rounded=0;orthogonalLoop=1;jettySize=auto;html=1;endArrow=block;endFill=0;verticalAlign=middle;" edge="1" parent="WIyWlLk6GJQsqaUBKTNV-1" source="G0FCoE94biT_OzXAXDnM-28" target="G0FCoE94biT_OzXAXDnM-30">
          <mxGeometry relative="1" as="geometry" />
        </mxCell>
        <mxCell id="G0FCoE94biT_OzXAXDnM-53" value="&lt;div&gt;Да&lt;/div&gt;" style="edgeLabel;html=1;align=center;verticalAlign=middle;resizable=0;points=[];" vertex="1" connectable="0" parent="G0FCoE94biT_OzXAXDnM-31">
          <mxGeometry x="-0.2585" relative="1" as="geometry">
            <mxPoint y="-10" as="offset" />
          </mxGeometry>
        </mxCell>
        <mxCell id="G0FCoE94biT_OzXAXDnM-43" value="" style="edgeStyle=orthogonalEdgeStyle;rounded=0;orthogonalLoop=1;jettySize=auto;html=1;endArrow=block;endFill=0;verticalAlign=middle;" edge="1" parent="WIyWlLk6GJQsqaUBKTNV-1" source="G0FCoE94biT_OzXAXDnM-28" target="G0FCoE94biT_OzXAXDnM-42">
          <mxGeometry relative="1" as="geometry" />
        </mxCell>
        <mxCell id="G0FCoE94biT_OzXAXDnM-49" value="Нет" style="edgeLabel;html=1;align=center;verticalAlign=middle;resizable=0;points=[];" vertex="1" connectable="0" parent="G0FCoE94biT_OzXAXDnM-43">
          <mxGeometry x="-0.1714" relative="1" as="geometry">
            <mxPoint y="-15" as="offset" />
          </mxGeometry>
        </mxCell>
        <mxCell id="G0FCoE94biT_OzXAXDnM-28" value="&lt;div&gt;во втором&lt;/div&gt;&lt;div&gt;разряде &quot;a&quot; и &quot;b&quot; стоит 1?&lt;/div&gt;" style="rhombus;whiteSpace=wrap;html=1;shadow=0;strokeWidth=1;spacing=6;spacingTop=-4;verticalAlign=middle;" vertex="1" parent="WIyWlLk6GJQsqaUBKTNV-1">
          <mxGeometry x="130" y="689.94" width="120" height="80" as="geometry" />
        </mxCell>
        <mxCell id="G0FCoE94biT_OzXAXDnM-37" value="" style="edgeStyle=orthogonalEdgeStyle;rounded=0;orthogonalLoop=1;jettySize=auto;html=1;endArrow=block;endFill=0;verticalAlign=middle;" edge="1" parent="WIyWlLk6GJQsqaUBKTNV-1" source="G0FCoE94biT_OzXAXDnM-30" target="G0FCoE94biT_OzXAXDnM-33">
          <mxGeometry relative="1" as="geometry">
            <Array as="points">
              <mxPoint x="330" y="849.94" />
              <mxPoint x="190" y="849.94" />
            </Array>
          </mxGeometry>
        </mxCell>
        <mxCell id="G0FCoE94biT_OzXAXDnM-30" value="ans2 = 1" style="whiteSpace=wrap;html=1;shadow=0;strokeWidth=1;spacing=6;spacingTop=-4;verticalAlign=middle;" vertex="1" parent="WIyWlLk6GJQsqaUBKTNV-1">
          <mxGeometry x="290" y="779.94" width="80" height="40" as="geometry" />
        </mxCell>
        <mxCell id="G0FCoE94biT_OzXAXDnM-32" value="" style="edgeStyle=orthogonalEdgeStyle;rounded=0;orthogonalLoop=1;jettySize=auto;html=1;endArrow=block;endFill=0;entryX=0.5;entryY=0;entryDx=0;entryDy=0;exitX=1;exitY=0.5;exitDx=0;exitDy=0;verticalAlign=middle;" edge="1" parent="WIyWlLk6GJQsqaUBKTNV-1" source="G0FCoE94biT_OzXAXDnM-33" target="G0FCoE94biT_OzXAXDnM-34">
          <mxGeometry relative="1" as="geometry">
            <mxPoint x="190" y="1014.94" as="targetPoint" />
          </mxGeometry>
        </mxCell>
        <mxCell id="G0FCoE94biT_OzXAXDnM-52" value="&lt;div&gt;Да&lt;/div&gt;" style="edgeLabel;html=1;align=center;verticalAlign=middle;resizable=0;points=[];" vertex="1" connectable="0" parent="G0FCoE94biT_OzXAXDnM-32">
          <mxGeometry x="-0.3633" y="-1" relative="1" as="geometry">
            <mxPoint x="-8" y="-11" as="offset" />
          </mxGeometry>
        </mxCell>
        <mxCell id="G0FCoE94biT_OzXAXDnM-46" value="" style="edgeStyle=orthogonalEdgeStyle;rounded=0;orthogonalLoop=1;jettySize=auto;html=1;endArrow=block;endFill=0;verticalAlign=middle;" edge="1" parent="WIyWlLk6GJQsqaUBKTNV-1" source="G0FCoE94biT_OzXAXDnM-33" target="G0FCoE94biT_OzXAXDnM-45">
          <mxGeometry relative="1" as="geometry" />
        </mxCell>
        <mxCell id="G0FCoE94biT_OzXAXDnM-50" value="Нет" style="edgeLabel;html=1;align=center;verticalAlign=middle;resizable=0;points=[];" vertex="1" connectable="0" parent="G0FCoE94biT_OzXAXDnM-46">
          <mxGeometry x="-0.2095" y="1" relative="1" as="geometry">
            <mxPoint y="-16" as="offset" />
          </mxGeometry>
        </mxCell>
        <mxCell id="G0FCoE94biT_OzXAXDnM-33" value="во третьем разряде &quot;a&quot; и &quot;b&quot; стоит 1?" style="rhombus;whiteSpace=wrap;html=1;shadow=0;strokeWidth=1;spacing=6;spacingTop=-4;verticalAlign=middle;" vertex="1" parent="WIyWlLk6GJQsqaUBKTNV-1">
          <mxGeometry x="130" y="889.94" width="120" height="80" as="geometry" />
        </mxCell>
        <mxCell id="G0FCoE94biT_OzXAXDnM-56" style="edgeStyle=orthogonalEdgeStyle;rounded=0;orthogonalLoop=1;jettySize=auto;html=1;entryX=0.5;entryY=0;entryDx=0;entryDy=0;endArrow=block;endFill=0;verticalAlign=middle;" edge="1" parent="WIyWlLk6GJQsqaUBKTNV-1" source="G0FCoE94biT_OzXAXDnM-34" target="G0FCoE94biT_OzXAXDnM-54">
          <mxGeometry relative="1" as="geometry">
            <Array as="points">
              <mxPoint x="330" y="1049.94" />
              <mxPoint x="190" y="1049.94" />
            </Array>
          </mxGeometry>
        </mxCell>
        <mxCell id="G0FCoE94biT_OzXAXDnM-34" value="ans3 = 1" style="whiteSpace=wrap;html=1;shadow=0;strokeWidth=1;spacing=6;spacingTop=-4;verticalAlign=middle;" vertex="1" parent="WIyWlLk6GJQsqaUBKTNV-1">
          <mxGeometry x="290" y="979.94" width="80" height="40" as="geometry" />
        </mxCell>
        <mxCell id="G0FCoE94biT_OzXAXDnM-41" style="edgeStyle=orthogonalEdgeStyle;rounded=0;orthogonalLoop=1;jettySize=auto;html=1;entryX=0.5;entryY=0;entryDx=0;entryDy=0;endArrow=block;endFill=0;exitX=0.5;exitY=1;exitDx=0;exitDy=0;verticalAlign=middle;" edge="1" parent="WIyWlLk6GJQsqaUBKTNV-1" source="G0FCoE94biT_OzXAXDnM-39" target="G0FCoE94biT_OzXAXDnM-28">
          <mxGeometry relative="1" as="geometry">
            <Array as="points">
              <mxPoint x="50" y="659.94" />
              <mxPoint x="190" y="659.94" />
            </Array>
          </mxGeometry>
        </mxCell>
        <mxCell id="G0FCoE94biT_OzXAXDnM-39" value="ans1 = 0" style="whiteSpace=wrap;html=1;shadow=0;strokeWidth=1;spacing=6;spacingTop=-4;verticalAlign=middle;" vertex="1" parent="WIyWlLk6GJQsqaUBKTNV-1">
          <mxGeometry x="10" y="589.94" width="80" height="40" as="geometry" />
        </mxCell>
        <mxCell id="G0FCoE94biT_OzXAXDnM-44" style="edgeStyle=orthogonalEdgeStyle;rounded=0;orthogonalLoop=1;jettySize=auto;html=1;entryX=0.5;entryY=0;entryDx=0;entryDy=0;endArrow=block;endFill=0;verticalAlign=middle;" edge="1" parent="WIyWlLk6GJQsqaUBKTNV-1" source="G0FCoE94biT_OzXAXDnM-42" target="G0FCoE94biT_OzXAXDnM-33">
          <mxGeometry relative="1" as="geometry">
            <Array as="points">
              <mxPoint x="45" y="849.94" />
              <mxPoint x="190" y="849.94" />
            </Array>
          </mxGeometry>
        </mxCell>
        <mxCell id="G0FCoE94biT_OzXAXDnM-42" value="ans2 = 0" style="whiteSpace=wrap;html=1;shadow=0;strokeWidth=1;spacing=6;spacingTop=-4;verticalAlign=middle;" vertex="1" parent="WIyWlLk6GJQsqaUBKTNV-1">
          <mxGeometry x="10" y="779.94" width="80" height="40" as="geometry" />
        </mxCell>
        <mxCell id="G0FCoE94biT_OzXAXDnM-55" value="" style="edgeStyle=orthogonalEdgeStyle;rounded=0;orthogonalLoop=1;jettySize=auto;html=1;endArrow=block;endFill=0;verticalAlign=middle;" edge="1" parent="WIyWlLk6GJQsqaUBKTNV-1" source="G0FCoE94biT_OzXAXDnM-45" target="G0FCoE94biT_OzXAXDnM-54">
          <mxGeometry relative="1" as="geometry">
            <Array as="points">
              <mxPoint x="50" y="1049.94" />
              <mxPoint x="190" y="1049.94" />
            </Array>
          </mxGeometry>
        </mxCell>
        <mxCell id="G0FCoE94biT_OzXAXDnM-45" value="ans3 = 0" style="whiteSpace=wrap;html=1;shadow=0;strokeWidth=1;spacing=6;spacingTop=-4;verticalAlign=middle;" vertex="1" parent="WIyWlLk6GJQsqaUBKTNV-1">
          <mxGeometry x="10" y="979.94" width="80" height="40" as="geometry" />
        </mxCell>
        <mxCell id="G0FCoE94biT_OzXAXDnM-57" style="edgeStyle=orthogonalEdgeStyle;rounded=0;orthogonalLoop=1;jettySize=auto;html=1;entryX=0.5;entryY=0;entryDx=0;entryDy=0;endArrow=block;endFill=0;verticalAlign=middle;" edge="1" parent="WIyWlLk6GJQsqaUBKTNV-1" source="G0FCoE94biT_OzXAXDnM-54" target="G0FCoE94biT_OzXAXDnM-96">
          <mxGeometry relative="1" as="geometry">
            <Array as="points">
              <mxPoint x="190" y="1210" />
              <mxPoint x="100" y="1210" />
            </Array>
          </mxGeometry>
        </mxCell>
        <mxCell id="G0FCoE94biT_OzXAXDnM-54" value="ans = конкатинация ans1, ans2 и ans3" style="whiteSpace=wrap;html=1;shadow=0;strokeWidth=1;spacing=6;spacingTop=-4;verticalAlign=middle;" vertex="1" parent="WIyWlLk6GJQsqaUBKTNV-1">
          <mxGeometry x="130" y="1089.94" width="120" height="60" as="geometry" />
        </mxCell>
        <mxCell id="G0FCoE94biT_OzXAXDnM-58" value="" style="edgeStyle=orthogonalEdgeStyle;rounded=0;orthogonalLoop=1;jettySize=auto;html=1;endArrow=block;endFill=0;exitX=1;exitY=0.5;exitDx=0;exitDy=0;verticalAlign=middle;" edge="1" parent="WIyWlLk6GJQsqaUBKTNV-1" source="G0FCoE94biT_OzXAXDnM-62" target="G0FCoE94biT_OzXAXDnM-64">
          <mxGeometry relative="1" as="geometry" />
        </mxCell>
        <mxCell id="G0FCoE94biT_OzXAXDnM-59" value="&lt;div&gt;Да&lt;/div&gt;" style="edgeLabel;html=1;align=center;verticalAlign=middle;resizable=0;points=[];" vertex="1" connectable="0" parent="G0FCoE94biT_OzXAXDnM-58">
          <mxGeometry x="-0.2524" y="-2" relative="1" as="geometry">
            <mxPoint x="-8" y="-12" as="offset" />
          </mxGeometry>
        </mxCell>
        <mxCell id="G0FCoE94biT_OzXAXDnM-60" value="" style="edgeStyle=orthogonalEdgeStyle;rounded=0;orthogonalLoop=1;jettySize=auto;html=1;endArrow=block;endFill=0;exitX=0;exitY=0.5;exitDx=0;exitDy=0;verticalAlign=middle;" edge="1" parent="WIyWlLk6GJQsqaUBKTNV-1" source="G0FCoE94biT_OzXAXDnM-62" target="G0FCoE94biT_OzXAXDnM-80">
          <mxGeometry relative="1" as="geometry" />
        </mxCell>
        <mxCell id="G0FCoE94biT_OzXAXDnM-61" value="Нет" style="edgeLabel;html=1;align=center;verticalAlign=middle;resizable=0;points=[];" vertex="1" connectable="0" parent="G0FCoE94biT_OzXAXDnM-60">
          <mxGeometry x="-0.1889" relative="1" as="geometry">
            <mxPoint x="13" y="-10" as="offset" />
          </mxGeometry>
        </mxCell>
        <mxCell id="G0FCoE94biT_OzXAXDnM-62" value="&lt;div&gt;в первом&lt;/div&gt;&lt;div&gt;разряде &quot;a&quot; и &quot;b&quot; стоит 0?&lt;/div&gt;" style="rhombus;whiteSpace=wrap;html=1;shadow=0;strokeWidth=1;spacing=6;spacingTop=-4;verticalAlign=middle;" vertex="1" parent="WIyWlLk6GJQsqaUBKTNV-1">
          <mxGeometry x="540" y="499.94" width="120" height="80" as="geometry" />
        </mxCell>
        <mxCell id="G0FCoE94biT_OzXAXDnM-63" value="" style="edgeStyle=orthogonalEdgeStyle;rounded=0;orthogonalLoop=1;jettySize=auto;html=1;endArrow=block;endFill=0;verticalAlign=middle;" edge="1" parent="WIyWlLk6GJQsqaUBKTNV-1" source="G0FCoE94biT_OzXAXDnM-64" target="G0FCoE94biT_OzXAXDnM-69">
          <mxGeometry relative="1" as="geometry">
            <Array as="points">
              <mxPoint x="740" y="659.94" />
              <mxPoint x="600" y="659.94" />
            </Array>
          </mxGeometry>
        </mxCell>
        <mxCell id="G0FCoE94biT_OzXAXDnM-64" value="ans1 = 0" style="whiteSpace=wrap;html=1;shadow=0;strokeWidth=1;spacing=6;spacingTop=-4;verticalAlign=middle;" vertex="1" parent="WIyWlLk6GJQsqaUBKTNV-1">
          <mxGeometry x="700" y="589.94" width="80" height="40" as="geometry" />
        </mxCell>
        <mxCell id="G0FCoE94biT_OzXAXDnM-65" value="" style="edgeStyle=orthogonalEdgeStyle;rounded=0;orthogonalLoop=1;jettySize=auto;html=1;endArrow=block;endFill=0;verticalAlign=middle;" edge="1" parent="WIyWlLk6GJQsqaUBKTNV-1" source="G0FCoE94biT_OzXAXDnM-69" target="G0FCoE94biT_OzXAXDnM-71">
          <mxGeometry relative="1" as="geometry" />
        </mxCell>
        <mxCell id="G0FCoE94biT_OzXAXDnM-66" value="&lt;div&gt;Да&lt;/div&gt;" style="edgeLabel;html=1;align=center;verticalAlign=middle;resizable=0;points=[];" vertex="1" connectable="0" parent="G0FCoE94biT_OzXAXDnM-65">
          <mxGeometry x="-0.2585" relative="1" as="geometry">
            <mxPoint y="-10" as="offset" />
          </mxGeometry>
        </mxCell>
        <mxCell id="G0FCoE94biT_OzXAXDnM-67" value="" style="edgeStyle=orthogonalEdgeStyle;rounded=0;orthogonalLoop=1;jettySize=auto;html=1;endArrow=block;endFill=0;verticalAlign=middle;" edge="1" parent="WIyWlLk6GJQsqaUBKTNV-1" source="G0FCoE94biT_OzXAXDnM-69" target="G0FCoE94biT_OzXAXDnM-82">
          <mxGeometry relative="1" as="geometry" />
        </mxCell>
        <mxCell id="G0FCoE94biT_OzXAXDnM-68" value="Нет" style="edgeLabel;html=1;align=center;verticalAlign=middle;resizable=0;points=[];" vertex="1" connectable="0" parent="G0FCoE94biT_OzXAXDnM-67">
          <mxGeometry x="-0.1714" relative="1" as="geometry">
            <mxPoint y="-15" as="offset" />
          </mxGeometry>
        </mxCell>
        <mxCell id="G0FCoE94biT_OzXAXDnM-69" value="&lt;div&gt;во втором&lt;/div&gt;&lt;div&gt;разряде &quot;a&quot; и &quot;b&quot; стоит 0?&lt;/div&gt;" style="rhombus;whiteSpace=wrap;html=1;shadow=0;strokeWidth=1;spacing=6;spacingTop=-4;verticalAlign=middle;" vertex="1" parent="WIyWlLk6GJQsqaUBKTNV-1">
          <mxGeometry x="540" y="689.94" width="120" height="80" as="geometry" />
        </mxCell>
        <mxCell id="G0FCoE94biT_OzXAXDnM-70" value="" style="edgeStyle=orthogonalEdgeStyle;rounded=0;orthogonalLoop=1;jettySize=auto;html=1;endArrow=block;endFill=0;verticalAlign=middle;" edge="1" parent="WIyWlLk6GJQsqaUBKTNV-1" source="G0FCoE94biT_OzXAXDnM-71" target="G0FCoE94biT_OzXAXDnM-76">
          <mxGeometry relative="1" as="geometry">
            <Array as="points">
              <mxPoint x="740" y="849.94" />
              <mxPoint x="600" y="849.94" />
            </Array>
          </mxGeometry>
        </mxCell>
        <mxCell id="G0FCoE94biT_OzXAXDnM-71" value="ans2 = 0" style="whiteSpace=wrap;html=1;shadow=0;strokeWidth=1;spacing=6;spacingTop=-4;verticalAlign=middle;" vertex="1" parent="WIyWlLk6GJQsqaUBKTNV-1">
          <mxGeometry x="700" y="779.94" width="80" height="40" as="geometry" />
        </mxCell>
        <mxCell id="G0FCoE94biT_OzXAXDnM-72" value="" style="edgeStyle=orthogonalEdgeStyle;rounded=0;orthogonalLoop=1;jettySize=auto;html=1;endArrow=block;endFill=0;entryX=0.5;entryY=0;entryDx=0;entryDy=0;exitX=1;exitY=0.5;exitDx=0;exitDy=0;verticalAlign=middle;" edge="1" parent="WIyWlLk6GJQsqaUBKTNV-1" source="G0FCoE94biT_OzXAXDnM-76" target="G0FCoE94biT_OzXAXDnM-78">
          <mxGeometry relative="1" as="geometry">
            <mxPoint x="600" y="1014.94" as="targetPoint" />
          </mxGeometry>
        </mxCell>
        <mxCell id="G0FCoE94biT_OzXAXDnM-73" value="&lt;div&gt;Да&lt;/div&gt;" style="edgeLabel;html=1;align=center;verticalAlign=middle;resizable=0;points=[];" vertex="1" connectable="0" parent="G0FCoE94biT_OzXAXDnM-72">
          <mxGeometry x="-0.3633" y="-1" relative="1" as="geometry">
            <mxPoint x="-8" y="-11" as="offset" />
          </mxGeometry>
        </mxCell>
        <mxCell id="G0FCoE94biT_OzXAXDnM-74" value="" style="edgeStyle=orthogonalEdgeStyle;rounded=0;orthogonalLoop=1;jettySize=auto;html=1;endArrow=block;endFill=0;verticalAlign=middle;" edge="1" parent="WIyWlLk6GJQsqaUBKTNV-1" source="G0FCoE94biT_OzXAXDnM-76" target="G0FCoE94biT_OzXAXDnM-84">
          <mxGeometry relative="1" as="geometry" />
        </mxCell>
        <mxCell id="G0FCoE94biT_OzXAXDnM-75" value="Нет" style="edgeLabel;html=1;align=center;verticalAlign=middle;resizable=0;points=[];" vertex="1" connectable="0" parent="G0FCoE94biT_OzXAXDnM-74">
          <mxGeometry x="-0.2095" y="1" relative="1" as="geometry">
            <mxPoint y="-16" as="offset" />
          </mxGeometry>
        </mxCell>
        <mxCell id="G0FCoE94biT_OzXAXDnM-76" value="во третьем разряде &quot;a&quot; и &quot;b&quot; стоит 0?" style="rhombus;whiteSpace=wrap;html=1;shadow=0;strokeWidth=1;spacing=6;spacingTop=-4;verticalAlign=middle;" vertex="1" parent="WIyWlLk6GJQsqaUBKTNV-1">
          <mxGeometry x="540" y="889.94" width="120" height="80" as="geometry" />
        </mxCell>
        <mxCell id="G0FCoE94biT_OzXAXDnM-77" style="edgeStyle=orthogonalEdgeStyle;rounded=0;orthogonalLoop=1;jettySize=auto;html=1;entryX=0.5;entryY=0;entryDx=0;entryDy=0;endArrow=block;endFill=0;verticalAlign=middle;" edge="1" parent="WIyWlLk6GJQsqaUBKTNV-1" source="G0FCoE94biT_OzXAXDnM-78" target="G0FCoE94biT_OzXAXDnM-85">
          <mxGeometry relative="1" as="geometry">
            <Array as="points">
              <mxPoint x="740" y="1049.94" />
              <mxPoint x="600" y="1049.94" />
            </Array>
          </mxGeometry>
        </mxCell>
        <mxCell id="G0FCoE94biT_OzXAXDnM-78" value="ans3 = 0" style="whiteSpace=wrap;html=1;shadow=0;strokeWidth=1;spacing=6;spacingTop=-4;verticalAlign=middle;" vertex="1" parent="WIyWlLk6GJQsqaUBKTNV-1">
          <mxGeometry x="700" y="979.94" width="80" height="40" as="geometry" />
        </mxCell>
        <mxCell id="G0FCoE94biT_OzXAXDnM-79" style="edgeStyle=orthogonalEdgeStyle;rounded=0;orthogonalLoop=1;jettySize=auto;html=1;entryX=0.5;entryY=0;entryDx=0;entryDy=0;endArrow=block;endFill=0;exitX=0.5;exitY=1;exitDx=0;exitDy=0;verticalAlign=middle;" edge="1" parent="WIyWlLk6GJQsqaUBKTNV-1" source="G0FCoE94biT_OzXAXDnM-80" target="G0FCoE94biT_OzXAXDnM-69">
          <mxGeometry relative="1" as="geometry">
            <Array as="points">
              <mxPoint x="460" y="659.94" />
              <mxPoint x="600" y="659.94" />
            </Array>
          </mxGeometry>
        </mxCell>
        <mxCell id="G0FCoE94biT_OzXAXDnM-80" value="ans1 = 1" style="whiteSpace=wrap;html=1;shadow=0;strokeWidth=1;spacing=6;spacingTop=-4;verticalAlign=middle;" vertex="1" parent="WIyWlLk6GJQsqaUBKTNV-1">
          <mxGeometry x="420" y="589.94" width="80" height="40" as="geometry" />
        </mxCell>
        <mxCell id="G0FCoE94biT_OzXAXDnM-81" style="edgeStyle=orthogonalEdgeStyle;rounded=0;orthogonalLoop=1;jettySize=auto;html=1;entryX=0.5;entryY=0;entryDx=0;entryDy=0;endArrow=block;endFill=0;verticalAlign=middle;" edge="1" parent="WIyWlLk6GJQsqaUBKTNV-1" source="G0FCoE94biT_OzXAXDnM-82" target="G0FCoE94biT_OzXAXDnM-76">
          <mxGeometry relative="1" as="geometry">
            <Array as="points">
              <mxPoint x="455" y="849.94" />
              <mxPoint x="600" y="849.94" />
            </Array>
          </mxGeometry>
        </mxCell>
        <mxCell id="G0FCoE94biT_OzXAXDnM-82" value="ans2 = 1" style="whiteSpace=wrap;html=1;shadow=0;strokeWidth=1;spacing=6;spacingTop=-4;verticalAlign=middle;" vertex="1" parent="WIyWlLk6GJQsqaUBKTNV-1">
          <mxGeometry x="420" y="779.94" width="80" height="40" as="geometry" />
        </mxCell>
        <mxCell id="G0FCoE94biT_OzXAXDnM-83" value="" style="edgeStyle=orthogonalEdgeStyle;rounded=0;orthogonalLoop=1;jettySize=auto;html=1;endArrow=block;endFill=0;verticalAlign=middle;" edge="1" parent="WIyWlLk6GJQsqaUBKTNV-1" source="G0FCoE94biT_OzXAXDnM-84" target="G0FCoE94biT_OzXAXDnM-85">
          <mxGeometry relative="1" as="geometry">
            <Array as="points">
              <mxPoint x="460" y="1049.94" />
              <mxPoint x="600" y="1049.94" />
            </Array>
          </mxGeometry>
        </mxCell>
        <mxCell id="G0FCoE94biT_OzXAXDnM-84" value="ans3 = 1" style="whiteSpace=wrap;html=1;shadow=0;strokeWidth=1;spacing=6;spacingTop=-4;verticalAlign=middle;" vertex="1" parent="WIyWlLk6GJQsqaUBKTNV-1">
          <mxGeometry x="420" y="979.94" width="80" height="40" as="geometry" />
        </mxCell>
        <mxCell id="G0FCoE94biT_OzXAXDnM-86" style="edgeStyle=orthogonalEdgeStyle;rounded=0;orthogonalLoop=1;jettySize=auto;html=1;endArrow=block;endFill=0;entryX=0.5;entryY=0;entryDx=0;entryDy=0;" edge="1" parent="WIyWlLk6GJQsqaUBKTNV-1" source="G0FCoE94biT_OzXAXDnM-85" target="G0FCoE94biT_OzXAXDnM-96">
          <mxGeometry relative="1" as="geometry">
            <Array as="points">
              <mxPoint x="600" y="1210" />
              <mxPoint x="100" y="1210" />
            </Array>
          </mxGeometry>
        </mxCell>
        <mxCell id="G0FCoE94biT_OzXAXDnM-85" value="ans = конкатинация ans1, ans2 и ans3" style="whiteSpace=wrap;html=1;shadow=0;strokeWidth=1;spacing=6;spacingTop=-4;verticalAlign=middle;" vertex="1" parent="WIyWlLk6GJQsqaUBKTNV-1">
          <mxGeometry x="540" y="1089.94" width="120" height="60" as="geometry" />
        </mxCell>
        <mxCell id="G0FCoE94biT_OzXAXDnM-91" value="Какую операцию делаем?" style="rhombus;whiteSpace=wrap;html=1;rounded=0;" vertex="1" parent="WIyWlLk6GJQsqaUBKTNV-1">
          <mxGeometry x="145" y="330" width="90" height="80" as="geometry" />
        </mxCell>
        <mxCell id="G0FCoE94biT_OzXAXDnM-100" style="edgeStyle=orthogonalEdgeStyle;rounded=0;orthogonalLoop=1;jettySize=auto;html=1;endArrow=block;endFill=0;" edge="1" parent="WIyWlLk6GJQsqaUBKTNV-1" target="G0FCoE94biT_OzXAXDnM-96">
          <mxGeometry relative="1" as="geometry">
            <mxPoint x="-475" y="610" as="sourcePoint" />
            <Array as="points">
              <mxPoint x="-475" y="1210" />
              <mxPoint x="100" y="1210" />
            </Array>
          </mxGeometry>
        </mxCell>
        <mxCell id="G0FCoE94biT_OzXAXDnM-94" value="&lt;div&gt;ans = &lt;br&gt;&lt;/div&gt;&lt;div&gt;конкатинация &quot;a&quot; и двух нулей &quot;00&quot;&lt;/div&gt;" style="rounded=0;whiteSpace=wrap;html=1;" vertex="1" parent="WIyWlLk6GJQsqaUBKTNV-1">
          <mxGeometry x="-550" y="549.94" width="150" height="60" as="geometry" />
        </mxCell>
        <mxCell id="G0FCoE94biT_OzXAXDnM-101" style="edgeStyle=orthogonalEdgeStyle;rounded=0;orthogonalLoop=1;jettySize=auto;html=1;endArrow=block;endFill=0;" edge="1" parent="WIyWlLk6GJQsqaUBKTNV-1" source="G0FCoE94biT_OzXAXDnM-95" target="G0FCoE94biT_OzXAXDnM-96">
          <mxGeometry relative="1" as="geometry">
            <Array as="points">
              <mxPoint x="-120" y="1210" />
              <mxPoint x="100" y="1210" />
            </Array>
          </mxGeometry>
        </mxCell>
        <mxCell id="G0FCoE94biT_OzXAXDnM-95" value="&lt;div&gt;ans = &lt;br&gt;&lt;/div&gt;&lt;div&gt;обрезать два последних символа в &quot;a&quot;&lt;/div&gt;" style="rounded=0;whiteSpace=wrap;html=1;" vertex="1" parent="WIyWlLk6GJQsqaUBKTNV-1">
          <mxGeometry x="-210" y="555" width="180" height="60" as="geometry" />
        </mxCell>
        <mxCell id="G0FCoE94biT_OzXAXDnM-99" value="" style="edgeStyle=orthogonalEdgeStyle;rounded=0;orthogonalLoop=1;jettySize=auto;html=1;endArrow=block;endFill=0;" edge="1" parent="WIyWlLk6GJQsqaUBKTNV-1" source="G0FCoE94biT_OzXAXDnM-96" target="WIyWlLk6GJQsqaUBKTNV-11">
          <mxGeometry relative="1" as="geometry" />
        </mxCell>
        <mxCell id="G0FCoE94biT_OzXAXDnM-96" value="перевести ans в десятичную систему из двоичной" style="rounded=0;whiteSpace=wrap;html=1;" vertex="1" parent="WIyWlLk6GJQsqaUBKTNV-1">
          <mxGeometry x="10" y="1240" width="180" height="60" as="geometry" />
        </mxCell>
      </root>
    </mxGraphModel>
  </diagram>
</mxfile>
